<svg width="57" height="81" viewBox="0 0 57 81" fill="none" xmlns="http://www.w3.org/2000/svg">
<path d="M20.5 0L19.535 7.84085C18.3879 17.1606 11.3401 24.6028 2.2158 26.1293L0 26.5L2.2158 26.8707C11.3401 28.3972 18.3879 35.8394 19.535 45.1591L20.5 53L21.465 45.1592C22.6121 35.8394 29.6599 28.3972 38.7842 26.8707L41 26.5L38.7842 26.1293C29.6599 24.6028 22.6121 17.1606 21.465 7.84085L20.5 0Z" fill="white" fill-opacity="0.7"/>
<path d="M46 53L45.4822 57.1423C44.8667 62.066 41.0849 65.9977 36.189 66.8042L35 67L36.189 67.1958C41.0849 68.0023 44.8667 71.934 45.4822 76.8577L46 81L46.5178 76.8577C47.1333 71.934 50.9151 68.0023 55.811 67.1958L57 67L55.811 66.8042C50.9151 65.9977 47.1333 62.066 46.5178 57.1423L46 53Z" fill="white" fill-opacity="0.95"/>
</svg>
