<svg width="57" height="81" viewBox="0 0 57 81" fill="none" xmlns="http://www.w3.org/2000/svg">
<path d="M36.5 0L37.465 7.84085C38.6121 17.1606 45.6599 24.6028 54.7842 26.1293L57 26.5L54.7842 26.8707C45.6599 28.3972 38.6121 35.8394 37.465 45.1591L36.5 53L35.535 45.1592C34.3879 35.8394 27.3401 28.3972 18.2158 26.8707L16 26.5L18.2158 26.1293C27.3401 24.6028 34.3879 17.1606 35.535 7.84085L36.5 0Z" fill="white" fill-opacity="0.7"/>
<path d="M11 53L11.5178 57.1423C12.1333 62.066 15.9151 65.9977 20.811 66.8042L22 67L20.811 67.1958C15.9151 68.0023 12.1333 71.934 11.5178 76.8577L11 81L10.4822 76.8577C9.86669 71.934 6.08494 68.0023 1.18896 67.1958L0 67L1.18897 66.8042C6.08494 65.9977 9.86669 62.066 10.4822 57.1423L11 53Z" fill="white" fill-opacity="0.95"/>
</svg>
