<svg width="509" height="612" viewBox="0 0 509 612" fill="none" xmlns="http://www.w3.org/2000/svg">
<g opacity="0.5">
<path d="M351.5 150L352.136 155.03C352.891 161.009 357.532 165.783 363.541 166.762L365 167L363.541 167.238C357.532 168.217 352.891 172.991 352.136 178.97L351.5 184L350.864 178.97C350.109 172.991 345.468 168.217 339.459 167.238L338 167L339.459 166.762C345.468 165.783 350.109 161.009 350.864 155.03L351.5 150Z" fill="white" fill-opacity="0.7"/>
</g>
<path d="M293.5 195L295.595 211.865C298.085 231.911 313.384 247.919 333.19 251.203L338 252L333.19 252.797C313.384 256.081 298.085 272.089 295.595 292.135L293.5 309L291.405 292.135C288.915 272.089 273.616 256.081 253.81 252.797L249 252L253.81 251.203C273.616 247.919 288.915 231.911 291.405 211.865L293.5 195Z" fill="white" fill-opacity="0.7"/>
<path d="M248.5 282L249.465 289.841C250.612 299.161 257.66 306.603 266.784 308.129L269 308.5L266.784 308.871C257.66 310.397 250.612 317.839 249.465 327.159L248.5 335L247.535 327.159C246.388 317.839 239.34 310.397 230.216 308.871L228 308.5L230.216 308.129C239.34 306.603 246.388 299.161 247.535 289.841L248.5 282Z" fill="white" fill-opacity="0.7"/>
</svg>
