<svg width="471" height="612" viewBox="0 0 471 612" fill="none" xmlns="http://www.w3.org/2000/svg">
<path d="M189.5 220L191.595 236.865C194.085 256.911 209.384 272.919 229.19 276.203L234 277L229.19 277.797C209.384 281.081 194.085 297.089 191.595 317.135L189.5 334L187.405 317.135C184.915 297.089 169.616 281.081 149.81 277.797L145 277L149.81 276.203C169.616 272.919 184.915 256.911 187.405 236.865L189.5 220Z" fill="white" fill-opacity="0.7"/>
<g opacity="0.5">
<path d="M226.5 175L227.136 180.03C227.891 186.009 232.532 190.783 238.541 191.762L240 192L238.541 192.238C232.532 193.217 227.891 197.991 227.136 203.97L226.5 209L225.864 203.97C225.109 197.991 220.468 193.217 214.459 192.238L213 192L214.459 191.762C220.468 190.783 225.109 186.009 225.864 180.03L226.5 175Z" fill="white" fill-opacity="0.7"/>
</g>
<path d="M233.5 307L234.465 314.841C235.612 324.161 242.66 331.603 251.784 333.129L254 333.5L251.784 333.871C242.66 335.397 235.612 342.839 234.465 352.159L233.5 360L232.535 352.159C231.388 342.839 224.34 335.397 215.216 333.871L213 333.5L215.216 333.129C224.34 331.603 231.388 324.161 232.535 314.841L233.5 307Z" fill="white" fill-opacity="0.7"/>
</svg>
