<svg width="1361" height="934" viewBox="0 0 1361 934" fill="none" xmlns="http://www.w3.org/2000/svg">
<circle cx="5" cy="5" r="5" transform="matrix(-1 -8.74228e-08 -8.74228e-08 1 168 0)" fill="#E7A4A4"/>
<circle cx="5" cy="5" r="5" transform="matrix(-1 -8.74228e-08 -8.74228e-08 1 148 0)" fill="#E7A4A4"/>
<circle cx="5" cy="5" r="5" transform="matrix(-1 -8.74228e-08 -8.74228e-08 1 128 0)" fill="#E7A4A4"/>
<circle cx="5" cy="5" r="5" transform="matrix(-1 -8.74228e-08 -8.74228e-08 1 108 0)" fill="#E7A4A4"/>
<circle cx="5" cy="5" r="5" transform="matrix(-1 -8.74228e-08 -8.74228e-08 1 90 0)" fill="#E7A4A4"/>
<circle cx="5" cy="5" r="5" transform="matrix(-1 -8.74228e-08 -8.74228e-08 1 70 0)" fill="#E7A4A4"/>
<circle cx="5" cy="5" r="5" transform="matrix(-1 -8.74228e-08 -8.74228e-08 1 50 0)" fill="#E7A4A4"/>
<circle cx="5" cy="5" r="5" transform="matrix(-1 -8.74228e-08 -8.74228e-08 1 30 0)" fill="#E7A4A4"/>
<circle cx="5" cy="5" r="5" transform="matrix(-1 -8.74228e-08 -8.74228e-08 1 148 20)" fill="#E7A4A4"/>
<circle cx="5" cy="5" r="5" transform="matrix(-1 -8.74228e-08 -8.74228e-08 1 128 20)" fill="#E7A4A4"/>
<circle cx="5" cy="5" r="5" transform="matrix(-1 -8.74228e-08 -8.74228e-08 1 108 20)" fill="#E7A4A4"/>
<circle cx="5" cy="5" r="5" transform="matrix(-1 -8.74228e-08 -8.74228e-08 1 90 20)" fill="#E7A4A4"/>
<circle cx="5" cy="5" r="5" transform="matrix(-1 -8.74228e-08 -8.74228e-08 1 70 20)" fill="#E7A4A4"/>
<circle cx="5" cy="5" r="5" transform="matrix(-1 -8.74228e-08 -8.74228e-08 1 50 20)" fill="#E7A4A4"/>
<circle cx="5" cy="5" r="5" transform="matrix(-1 -8.74228e-08 -8.74228e-08 1 30 20)" fill="#E7A4A4"/>
<circle cx="5" cy="5" r="5" transform="matrix(-4.37114e-08 1 1 4.37114e-08 6.10352e-05 0)" fill="#E7A4A4"/>
<circle cx="5" cy="5" r="5" transform="matrix(-4.37114e-08 1 1 4.37114e-08 6.10352e-05 20)" fill="#E7A4A4"/>
<circle cx="5" cy="5" r="5" transform="matrix(-4.37114e-08 1 1 4.37114e-08 6.10352e-05 40)" fill="#E7A4A4"/>
<circle cx="5" cy="5" r="5" transform="matrix(-4.37114e-08 1 1 4.37114e-08 6.10352e-05 60)" fill="#E7A4A4"/>
<circle cx="5" cy="5" r="5" transform="matrix(-4.37114e-08 1 1 4.37114e-08 6.10352e-05 78)" fill="#E7A4A4"/>
<circle cx="5" cy="5" r="5" transform="matrix(-4.37114e-08 1 1 4.37114e-08 6.10352e-05 98)" fill="#E7A4A4"/>
<circle cx="5" cy="5" r="5" transform="matrix(-4.37114e-08 1 1 4.37114e-08 6.10352e-05 118)" fill="#E7A4A4"/>
<circle cx="5" cy="5" r="5" transform="matrix(-4.37114e-08 1 1 4.37114e-08 6.10352e-05 138)" fill="#E7A4A4"/>
<circle cx="5" cy="5" r="5" transform="matrix(-4.37114e-08 1 1 4.37114e-08 19 40)" fill="#E7A4A4"/>
<circle cx="5" cy="5" r="5" transform="matrix(-4.37114e-08 1 1 4.37114e-08 19 60)" fill="#E7A4A4"/>
<circle cx="5" cy="5" r="5" transform="matrix(-4.37114e-08 1 1 4.37114e-08 19 80)" fill="#E7A4A4"/>
<circle cx="5" cy="5" r="5" transform="matrix(-4.37114e-08 1 1 4.37114e-08 19 100)" fill="#E7A4A4"/>
<circle cx="5" cy="5" r="5" transform="matrix(-4.37114e-08 1 1 4.37114e-08 0 156)" fill="#E7A4A4"/>
<circle cx="5" cy="5" r="5" transform="matrix(-4.37114e-08 1 1 4.37114e-08 0 176)" fill="#E7A4A4"/>
<circle cx="5" cy="5" r="5" transform="matrix(-4.37114e-08 1 1 4.37114e-08 0 196)" fill="#E7A4A4"/>
<circle cx="5" cy="5" r="5" transform="matrix(-4.37114e-08 1 1 4.37114e-08 0 216)" fill="#E7A4A4"/>
<circle cx="5" cy="5" r="5" transform="matrix(-4.37114e-08 1 1 4.37114e-08 19 118)" fill="#E7A4A4"/>
<circle cx="5" cy="5" r="5" transform="matrix(-4.37114e-08 1 1 4.37114e-08 19 138)" fill="#E7A4A4"/>
<circle cx="5" cy="5" r="5" transform="matrix(-4.37114e-08 1 1 4.37114e-08 19 158)" fill="#E7A4A4"/>
<circle cx="5" cy="5" r="5" transform="matrix(-4.37114e-08 1 1 4.37114e-08 19 178)" fill="#E7A4A4"/>
<circle cx="5" cy="5" r="5" transform="matrix(1 1.74846e-07 1.74846e-07 -1 1193 934)" fill="#E7A4A4"/>
<circle cx="5" cy="5" r="5" transform="matrix(1 1.74846e-07 1.74846e-07 -1 1213 934)" fill="#E7A4A4"/>
<circle cx="5" cy="5" r="5" transform="matrix(1 1.74846e-07 1.74846e-07 -1 1233 934)" fill="#E7A4A4"/>
<circle cx="5" cy="5" r="5" transform="matrix(1 1.74846e-07 1.74846e-07 -1 1253 934)" fill="#E7A4A4"/>
<circle cx="5" cy="5" r="5" transform="matrix(1 1.74846e-07 1.74846e-07 -1 1271 934)" fill="#E7A4A4"/>
<circle cx="5" cy="5" r="5" transform="matrix(1 1.74846e-07 1.74846e-07 -1 1291 934)" fill="#E7A4A4"/>
<circle cx="5" cy="5" r="5" transform="matrix(1 1.74846e-07 1.74846e-07 -1 1311 934)" fill="#E7A4A4"/>
<circle cx="5" cy="5" r="5" transform="matrix(1 1.74846e-07 1.74846e-07 -1 1331 934)" fill="#E7A4A4"/>
<circle cx="5" cy="5" r="5" transform="matrix(1 1.74846e-07 1.74846e-07 -1 1213 914)" fill="#E7A4A4"/>
<circle cx="5" cy="5" r="5" transform="matrix(1 1.74846e-07 1.74846e-07 -1 1233 914)" fill="#E7A4A4"/>
<circle cx="5" cy="5" r="5" transform="matrix(1 1.74846e-07 1.74846e-07 -1 1253 914)" fill="#E7A4A4"/>
<circle cx="5" cy="5" r="5" transform="matrix(1 1.74846e-07 1.74846e-07 -1 1271 914)" fill="#E7A4A4"/>
<circle cx="5" cy="5" r="5" transform="matrix(1 1.74846e-07 1.74846e-07 -1 1291 914)" fill="#E7A4A4"/>
<circle cx="5" cy="5" r="5" transform="matrix(1 1.74846e-07 1.74846e-07 -1 1311 914)" fill="#E7A4A4"/>
<circle cx="5" cy="5" r="5" transform="matrix(1 1.74846e-07 1.74846e-07 -1 1331 914)" fill="#E7A4A4"/>
<circle cx="5" cy="5" r="5" transform="matrix(1.31134e-07 -1 -1 -1.31134e-07 1361 934)" fill="#E7A4A4"/>
<circle cx="5" cy="5" r="5" transform="matrix(1.31134e-07 -1 -1 -1.31134e-07 1361 914)" fill="#E7A4A4"/>
<circle cx="5" cy="5" r="5" transform="matrix(1.31134e-07 -1 -1 -1.31134e-07 1361 894)" fill="#E7A4A4"/>
<circle cx="5" cy="5" r="5" transform="matrix(1.31134e-07 -1 -1 -1.31134e-07 1361 874)" fill="#E7A4A4"/>
<circle cx="5" cy="5" r="5" transform="matrix(1.31134e-07 -1 -1 -1.31134e-07 1361 856)" fill="#E7A4A4"/>
<circle cx="5" cy="5" r="5" transform="matrix(1.31134e-07 -1 -1 -1.31134e-07 1361 836)" fill="#E7A4A4"/>
<circle cx="5" cy="5" r="5" transform="matrix(1.31134e-07 -1 -1 -1.31134e-07 1361 816)" fill="#E7A4A4"/>
<circle cx="5" cy="5" r="5" transform="matrix(1.31134e-07 -1 -1 -1.31134e-07 1361 796)" fill="#E7A4A4"/>
<circle cx="5" cy="5" r="5" transform="matrix(1.31134e-07 -1 -1 -1.31134e-07 1342 894)" fill="#E7A4A4"/>
<circle cx="5" cy="5" r="5" transform="matrix(1.31134e-07 -1 -1 -1.31134e-07 1342 874)" fill="#E7A4A4"/>
<circle cx="5" cy="5" r="5" transform="matrix(1.31134e-07 -1 -1 -1.31134e-07 1342 854)" fill="#E7A4A4"/>
<circle cx="5" cy="5" r="5" transform="matrix(1.31134e-07 -1 -1 -1.31134e-07 1342 834)" fill="#E7A4A4"/>
<circle cx="5" cy="5" r="5" transform="matrix(1.31134e-07 -1 -1 -1.31134e-07 1361 778)" fill="#E7A4A4"/>
<circle cx="5" cy="5" r="5" transform="matrix(1.31134e-07 -1 -1 -1.31134e-07 1361 758)" fill="#E7A4A4"/>
<circle cx="5" cy="5" r="5" transform="matrix(1.31134e-07 -1 -1 -1.31134e-07 1361 738)" fill="#E7A4A4"/>
<circle cx="5" cy="5" r="5" transform="matrix(1.31134e-07 -1 -1 -1.31134e-07 1361 718)" fill="#E7A4A4"/>
<circle cx="5" cy="5" r="5" transform="matrix(1.31134e-07 -1 -1 -1.31134e-07 1342 816)" fill="#E7A4A4"/>
<circle cx="5" cy="5" r="5" transform="matrix(1.31134e-07 -1 -1 -1.31134e-07 1342 796)" fill="#E7A4A4"/>
<circle cx="5" cy="5" r="5" transform="matrix(1.31134e-07 -1 -1 -1.31134e-07 1342 776)" fill="#E7A4A4"/>
<circle cx="5" cy="5" r="5" transform="matrix(1.31134e-07 -1 -1 -1.31134e-07 1342 756)" fill="#E7A4A4"/>
</svg>
